<svg width="500" height="500" viewBox="0 0 500 500" fill="none" xmlns="http://www.w3.org/2000/svg">
<rect width="500" height="500" fill="#2F2E41"/>
<path d="M428.593 262.245C426.601 285.246 416.574 307.473 402.271 325.856C401.673 326.625 401.068 327.387 400.455 328.141C399.078 329.839 397.665 331.505 396.216 333.139C394.443 335.151 392.619 337.118 390.743 339.038C389.216 340.619 387.654 342.165 386.056 343.678C384.822 344.858 383.575 346.015 382.313 347.149C367.134 360.865 349.696 372.184 331.73 382.083C296.667 401.394 258.236 416.024 218.262 418.154C178.293 420.279 136.567 408.832 107.255 381.57C67.7507 344.831 56.7254 283.554 72.7642 232.047C83.4318 197.78 105.205 166.781 134.837 146.535C164.213 126.465 201.273 117.431 236.345 123.336C264.344 106.32 300.997 105.995 331.436 118.59C347.678 125.312 362.254 135.307 375.041 147.384C380.897 152.926 386.376 158.853 391.443 165.126C391.961 165.761 392.473 166.402 392.98 167.048C395.105 169.734 397.161 172.474 399.147 175.27C401.998 179.28 404.705 183.379 407.268 187.566C407.973 188.72 408.672 189.878 409.356 191.048C409.815 191.832 410.279 192.623 410.733 193.418C410.744 193.434 410.751 193.453 410.755 193.471C417.861 205.97 423.67 219.308 426.697 233.248C427.231 235.715 427.68 238.192 428.027 240.691V240.696C428.331 242.816 428.561 244.946 428.716 247.087C429.081 252.135 429.039 257.204 428.593 262.245Z" fill="#3F3D56"/>
<path opacity="0.3" d="M324.288 297.017L245.022 230.984L322.027 299.662C322.176 299.913 322.383 300.125 322.631 300.281C322.878 300.436 323.159 300.53 323.45 300.555C323.741 300.58 324.034 300.535 324.304 300.425C324.575 300.314 324.815 300.14 325.004 299.918C325.194 299.696 325.328 299.432 325.396 299.148C325.463 298.863 325.461 298.567 325.391 298.284C325.321 298 325.185 297.737 324.993 297.517C324.801 297.297 324.559 297.125 324.288 297.017Z" fill="#F0F0F0"/>
<path d="M142.51 263.415C168.754 263.415 190.028 242.14 190.028 215.896C190.028 189.652 168.754 168.377 142.51 168.377C116.266 168.377 94.9912 189.652 94.9912 215.896C94.9912 242.14 116.266 263.415 142.51 263.415Z" fill="#F2F2F2"/>
<path d="M184.689 212.692C184.69 218.372 183.571 223.996 181.398 229.243C179.225 234.49 176.039 239.258 172.023 243.274C168.008 247.29 163.24 250.475 157.993 252.648C152.745 254.822 147.122 255.94 141.442 255.94C136.38 255.937 131.357 255.051 126.599 253.323C119.16 250.613 112.606 245.914 107.653 239.737C102.699 233.56 99.5345 226.143 98.5042 218.293C97.4739 210.442 98.6171 202.459 101.809 195.214C105.001 187.968 110.12 181.737 116.608 177.198C123.097 172.66 130.706 169.989 138.607 169.476C146.508 168.962 154.398 170.626 161.419 174.287C168.44 177.947 174.322 183.463 178.425 190.235C182.528 197.007 184.695 204.775 184.689 212.692Z" fill="white"/>
<path d="M133.967 211.625C141.339 211.625 147.315 205.649 147.315 198.277C147.315 190.905 141.339 184.929 133.967 184.929C126.595 184.929 120.619 190.905 120.619 198.277C120.619 205.649 126.595 211.625 133.967 211.625Z" fill="#E4E4E4"/>
<path d="M183.002 200.695C180.109 202.087 176.812 202.39 173.714 201.548C170.616 200.706 167.925 198.775 166.135 196.111C164.345 193.446 163.575 190.225 163.966 187.039C164.357 183.853 165.884 180.914 168.266 178.762C175.345 184.358 180.497 192.027 183.002 200.695Z" fill="#F2F2F2"/>
<path d="M155.858 231.913C158.512 231.913 160.663 229.762 160.663 227.108C160.663 224.454 158.512 222.303 155.858 222.303C153.204 222.303 151.052 224.454 151.052 227.108C151.052 229.762 153.204 231.913 155.858 231.913Z" fill="#E4E4E4"/>
<path d="M136.103 254.338C136.102 254.76 136.047 255.18 135.937 255.587C132.749 255.188 129.616 254.429 126.599 253.323C126.85 252.164 127.52 251.138 128.482 250.443C129.443 249.749 130.627 249.434 131.807 249.56C132.986 249.686 134.078 250.243 134.871 251.125C135.664 252.007 136.103 253.152 136.103 254.338Z" fill="#F2F2F2"/>
<path d="M107.805 210.557C107.805 212.995 106.878 215.341 105.213 217.122C103.548 218.902 101.268 219.983 98.8355 220.146C97.7345 213.799 98.0555 207.287 99.7752 201.08C102.019 201.454 104.057 202.611 105.527 204.347C106.997 206.082 107.805 208.282 107.805 210.557Z" fill="#F2F2F2"/>
<path d="M344.797 195.289C345.889 195.289 346.774 194.404 346.774 193.313C346.774 192.221 345.889 191.336 344.797 191.336C343.705 191.336 342.82 192.221 342.82 193.313C342.82 194.404 343.705 195.289 344.797 195.289Z" fill="#7DADAD"/>
<path d="M326.561 147.197C327.199 147.197 327.716 146.68 327.716 146.042C327.716 145.405 327.199 144.888 326.561 144.888C325.924 144.888 325.406 145.405 325.406 146.042C325.406 146.68 325.924 147.197 326.561 147.197Z" fill="#F0F0F0"/>
<path d="M141.293 373.578C141.93 373.578 142.447 373.061 142.447 372.423C142.447 371.785 141.93 371.268 141.293 371.268C140.655 371.268 140.138 371.785 140.138 372.423C140.138 373.061 140.655 373.578 141.293 373.578Z" fill="#F0F0F0"/>
<path d="M333.118 260.198C333.755 260.198 334.272 259.681 334.272 259.043C334.272 258.406 333.755 257.889 333.118 257.889C332.48 257.889 331.963 258.406 331.963 259.043C331.963 259.681 332.48 260.198 333.118 260.198Z" fill="#F0F0F0"/>
<path d="M184.088 271.105C185.18 271.105 186.065 270.22 186.065 269.129C186.065 268.037 185.18 267.152 184.088 267.152C182.996 267.152 182.111 268.037 182.111 269.129C182.111 270.22 182.996 271.105 184.088 271.105Z" fill="#7DADAD"/>
<path d="M112.543 313.702C117.699 313.702 121.878 309.522 121.878 304.367C121.878 299.212 117.699 295.033 112.543 295.033C107.388 295.033 103.209 299.212 103.209 304.367C103.209 309.522 107.388 313.702 112.543 313.702Z" fill="#7DADAD"/>
<path d="M163.717 315.915C164.355 315.915 164.872 315.398 164.872 314.76C164.872 314.122 164.355 313.605 163.717 313.605C163.079 313.605 162.562 314.122 162.562 314.76C162.562 315.398 163.079 315.915 163.717 315.915Z" fill="#F0F0F0"/>
<path d="M281.179 135.451C281.816 135.451 282.333 134.934 282.333 134.296C282.333 133.658 281.816 133.141 281.179 133.141C280.541 133.141 280.024 133.658 280.024 134.296C280.024 134.934 280.541 135.451 281.179 135.451Z" fill="#F0F0F0"/>
<path d="M212.303 381.587C212.941 381.587 213.458 381.07 213.458 380.432C213.458 379.794 212.941 379.277 212.303 379.277C211.665 379.277 211.148 379.794 211.148 380.432C211.148 381.07 211.665 381.587 212.303 381.587Z" fill="#F0F0F0"/>
<path d="M195.218 146.129C195.856 146.129 196.373 145.612 196.373 144.975C196.373 144.337 195.856 143.82 195.218 143.82C194.58 143.82 194.063 144.337 194.063 144.975C194.063 145.612 194.58 146.129 195.218 146.129Z" fill="#F0F0F0"/>
<path d="M225.117 202.191C225.755 202.191 226.272 201.674 226.272 201.036C226.272 200.398 225.755 199.881 225.117 199.881C224.479 199.881 223.962 200.398 223.962 201.036C223.962 201.674 224.479 202.191 225.117 202.191Z" fill="#F0F0F0"/>
<path d="M179.35 339.752C179.988 339.752 180.505 339.235 180.505 338.597C180.505 337.959 179.988 337.442 179.35 337.442C178.712 337.442 178.195 337.959 178.195 338.597C178.195 339.235 178.712 339.752 179.35 339.752Z" fill="#F0F0F0"/>
<path d="M314.431 347.227C315.068 347.227 315.585 346.71 315.585 346.072C315.585 345.434 315.068 344.917 314.431 344.917C313.793 344.917 313.276 345.434 313.276 346.072C313.276 346.71 313.793 347.227 314.431 347.227Z" fill="#F0F0F0"/>
<path d="M254.632 279.953C255.27 279.953 255.787 279.436 255.787 278.798C255.787 278.161 255.27 277.643 254.632 277.643C253.994 277.643 253.477 278.161 253.477 278.798C253.477 279.436 253.994 279.953 254.632 279.953Z" fill="#F0F0F0"/>
<path d="M285.065 202.001C285.703 202.001 286.22 201.484 286.22 200.847C286.22 200.209 285.703 199.692 285.065 199.692C284.427 199.692 283.91 200.209 283.91 200.847C283.91 201.484 284.427 202.001 285.065 202.001Z" fill="#F0F0F0"/>
<path d="M340.395 240.543C341.66 240.543 342.685 239.518 342.685 238.253C342.685 236.988 341.66 235.963 340.395 235.963C339.13 235.963 338.105 236.988 338.105 238.253C338.105 239.518 339.13 240.543 340.395 240.543Z" fill="#FF6584"/>
<path d="M247.494 164.727C248.758 164.727 249.784 163.702 249.784 162.437C249.784 161.172 248.758 160.147 247.494 160.147C246.229 160.147 245.204 161.172 245.204 162.437C245.204 163.702 246.229 164.727 247.494 164.727Z" fill="#FF6584"/>
<path d="M247.494 322.232C248.758 322.232 249.784 321.207 249.784 319.942C249.784 318.678 248.758 317.652 247.494 317.652C246.229 317.652 245.204 318.678 245.204 319.942C245.204 321.207 246.229 322.232 247.494 322.232Z" fill="#FF6584"/>
<path d="M404.699 366.541C397.805 366.541 390.249 366.28 382.031 365.759C339.524 363.06 284.465 353.675 226.995 339.334C169.525 324.994 116.511 307.409 77.7195 289.822C58.8229 281.254 44.3198 273.144 34.6136 265.717C24.3373 257.854 19.8423 251 21.2529 245.347C24.0015 234.332 48.339 231.923 68.2717 231.841L68.2785 233.443C40.9057 233.555 24.757 237.92 22.8073 245.735C20.3235 255.687 40.5795 271.224 78.3809 288.363C117.088 305.912 170.004 323.462 227.383 337.781C284.761 352.098 339.719 361.467 382.133 364.16C423.553 366.791 448.735 362.592 451.219 352.64C453.281 344.376 439.687 332.204 412.943 318.363L413.679 316.941C433.112 326.997 455.669 341.422 452.773 353.027C451.362 358.681 444.174 362.619 431.408 364.732C424.131 365.937 415.193 366.541 404.699 366.541Z" fill="#7DADAD"/>
<path d="M402.527 247.13C432.162 247.13 456.186 223.106 456.186 193.471C456.186 163.837 432.162 139.813 402.527 139.813C372.892 139.813 348.868 163.837 348.868 193.471C348.868 223.106 372.892 247.13 402.527 247.13Z" fill="white"/>
<path d="M402.527 139.012C391.756 139.012 381.227 142.206 372.271 148.19C363.315 154.174 356.335 162.68 352.213 172.631C348.091 182.582 347.012 193.532 349.114 204.096C351.215 214.66 356.402 224.364 364.018 231.98C371.635 239.596 381.338 244.783 391.902 246.884C402.466 248.986 413.416 247.907 423.368 243.785C433.319 239.663 441.824 232.683 447.808 223.727C453.792 214.772 456.986 204.242 456.986 193.471C457.012 186.312 455.621 179.219 452.893 172.6C450.166 165.981 446.155 159.967 441.093 154.905C436.031 149.843 430.017 145.833 423.398 143.105C416.779 140.377 409.686 138.986 402.527 139.012ZM402.527 246.329C392.073 246.329 381.853 243.229 373.161 237.421C364.468 231.613 357.693 223.358 353.693 213.699C349.692 204.041 348.645 193.413 350.685 183.159C352.724 172.906 357.759 163.488 365.151 156.095C372.543 148.703 381.961 143.669 392.215 141.629C402.468 139.59 413.096 140.637 422.755 144.637C432.413 148.638 440.668 155.413 446.476 164.105C452.285 172.798 455.385 183.017 455.385 193.471C455.412 200.42 454.063 207.306 451.416 213.731C448.769 220.156 444.877 225.994 439.963 230.908C435.049 235.821 429.212 239.714 422.787 242.361C416.361 245.007 409.476 246.356 402.527 246.329Z" fill="#2F2E41"/>
<path d="M355.438 206.323C355.192 206.323 354.954 206.238 354.764 206.082C354.574 205.927 354.443 205.711 354.393 205.47C352.858 197.652 353.135 189.586 355.203 181.891C357.271 174.197 361.074 167.079 366.321 161.083C366.51 160.872 366.774 160.745 367.057 160.73C367.339 160.714 367.616 160.811 367.827 160.999C368.038 161.187 368.166 161.451 368.182 161.733C368.199 162.015 368.103 162.292 367.916 162.504C362.888 168.249 359.243 175.071 357.261 182.445C355.28 189.818 355.014 197.548 356.485 205.04C356.517 205.195 356.514 205.356 356.476 205.51C356.438 205.664 356.366 205.807 356.266 205.93C356.166 206.053 356.039 206.152 355.896 206.22C355.753 206.288 355.597 206.323 355.438 206.323Z" fill="#2F2E41"/>
<path d="M402.493 243.323C421.329 243.323 436.598 228.054 436.598 209.218C436.598 190.383 421.329 175.113 402.493 175.113C383.658 175.113 368.388 190.383 368.388 209.218C368.388 228.054 383.658 243.323 402.493 243.323Z" fill="#7DADAD"/>
<path d="M391.654 222.094C389.444 222.033 386.692 221.956 384.572 220.408C383.941 219.928 383.423 219.315 383.053 218.614C382.683 217.912 382.472 217.139 382.433 216.347C382.394 215.784 382.487 215.22 382.702 214.698C382.918 214.177 383.252 213.713 383.677 213.342C384.784 212.406 386.4 212.187 388.143 212.699L386.337 199.508L387.662 199.326L389.785 214.834L388.678 214.326C387.395 213.738 385.634 213.439 384.54 214.363C384.271 214.605 384.062 214.905 383.928 215.241C383.795 215.577 383.74 215.939 383.769 216.3C383.802 216.889 383.961 217.465 384.235 217.987C384.51 218.509 384.894 218.967 385.361 219.327C387.011 220.532 389.204 220.688 391.692 220.757L391.654 222.094Z" fill="#2F2E41"/>
<path d="M379.784 200.646H372.581V201.983H379.784V200.646Z" fill="#2F2E41"/>
<path d="M402.521 200.646H395.318V201.983H402.521V200.646Z" fill="#2F2E41"/>
<path d="M405.052 266.052C404.317 265.332 403.446 264.764 402.491 264.382C401.535 264 400.513 263.811 399.484 263.826C397.695 263.839 395.966 264.473 394.593 265.62C394.373 265.797 394.165 265.988 393.968 266.191L368.666 292.139L350.315 310.96C350.037 311.241 349.806 311.565 349.632 311.921C349.357 312.471 349.216 313.078 349.221 313.693C349.226 314.199 349.332 314.699 349.532 315.163C349.732 315.628 350.022 316.048 350.385 316.4L351.106 317.105L356.338 322.204L356.343 322.199C357.046 322.769 357.926 323.077 358.831 323.069C359.337 323.064 359.837 322.958 360.301 322.758C360.766 322.558 361.186 322.268 361.538 321.905L362.387 321.04L368.463 314.809L368.666 314.601L405.191 277.142C406.643 275.652 407.444 273.648 407.418 271.568C407.392 269.489 406.541 267.504 405.052 266.052Z" fill="#7DADAD"/>
<path d="M404.796 193.307C405.924 190.922 404.767 188.375 402.786 186.852C400.29 184.932 397.062 185.25 394.222 186.158C391.114 187.153 388.075 188.943 384.716 188.84C383.52 188.819 382.357 188.436 381.381 187.743C380.405 187.05 379.661 186.078 379.247 184.955C377.448 180.342 379.48 175.187 382.611 171.688C384.378 169.685 386.563 168.093 389.011 167.025C391.459 165.956 394.112 165.436 396.783 165.502C399.831 165.654 402.795 166.557 405.41 168.132C408.025 169.706 410.209 171.903 411.769 174.527C411.88 174.706 412.055 174.836 412.259 174.889C412.463 174.943 412.68 174.916 412.865 174.814C415.241 173.752 417.804 173.171 420.406 173.106C423.008 173.04 425.598 173.491 428.024 174.433C431.665 175.917 434.768 178.473 436.921 181.763C439.075 185.052 440.177 188.918 440.08 192.849C440.054 193.88 441.656 193.879 441.682 192.849C441.782 187.354 439.755 182.034 436.023 177.999C434.129 175.988 431.85 174.376 429.322 173.26C426.794 172.145 424.068 171.547 421.305 171.503C418.115 171.435 414.952 172.094 412.056 173.431L413.152 173.719C411.708 171.288 409.769 169.189 407.46 167.559C405.151 165.928 402.524 164.802 399.751 164.253C397.005 163.741 394.181 163.825 391.471 164.5C388.76 165.175 386.226 166.425 384.041 168.166C379.929 171.384 376.813 176.377 377.007 181.733C377.091 184.05 377.78 186.429 379.388 188.156C381.449 190.368 384.526 190.751 387.369 190.184C391.146 189.431 394.595 186.946 398.533 187.023C399.305 187.023 400.068 187.187 400.771 187.504C401.474 187.822 402.102 188.284 402.613 188.862C403.481 189.841 404.004 191.249 403.413 192.499C402.975 193.426 404.355 194.239 404.796 193.307Z" fill="#2F2E41"/>
<path d="M149.174 385.988C130.167 385.989 112.497 385.337 96.6783 384.021C76.0015 382.3 59.6167 379.534 47.9795 375.8C35.6585 371.846 29.122 366.901 28.5513 361.102C27.4392 349.806 49.5524 339.359 68.2989 332.584L68.8432 334.091C43.0995 343.394 29.3564 352.931 30.1452 360.946C31.15 371.154 55.4486 378.982 96.811 382.424C139.164 385.948 194.901 384.7 253.754 378.906C312.608 373.113 367.519 363.472 408.372 351.758C448.269 340.319 470.576 327.903 469.571 317.695C468.737 309.22 451.843 302.322 422.003 298.272L422.219 296.685C443.901 299.627 469.993 305.634 471.165 317.538C471.736 323.337 466.288 329.462 454.975 335.741C444.289 341.673 428.758 347.58 408.813 353.298C367.87 365.038 312.858 374.698 253.911 380.5C216.932 384.14 181.168 385.988 149.174 385.988Z" fill="#7DADAD"/>
<path d="M468.666 323.312C473.821 323.312 478 319.133 478 313.978C478 308.822 473.821 304.643 468.666 304.643C463.51 304.643 459.331 308.822 459.331 313.978C459.331 319.133 463.51 323.312 468.666 323.312Z" fill="#7DADAD"/>
<path d="M197.97 100.669C203.125 100.669 207.304 96.4898 207.304 91.3345C207.304 86.1792 203.125 82 197.97 82C192.815 82 188.635 86.1792 188.635 91.3345C188.635 96.4898 192.815 100.669 197.97 100.669Z" fill="#E6E6E6"/>
<path d="M31.3882 322.778C36.5435 322.778 40.7227 318.599 40.7227 313.444C40.7227 308.288 36.5435 304.109 31.3882 304.109C26.2329 304.109 22.0537 308.288 22.0537 313.444C22.0537 318.599 26.2329 322.778 31.3882 322.778Z" fill="#E6E6E6"/>
<path d="M89.0511 145.635C92.2069 145.635 94.7652 143.077 94.7652 139.921C94.7652 136.765 92.2069 134.207 89.0511 134.207C85.8952 134.207 83.3369 136.765 83.3369 139.921C83.3369 143.077 85.8952 145.635 89.0511 145.635Z" fill="#FF6584"/>
<path d="M62.3553 362.405C65.5111 362.405 68.0694 359.847 68.0694 356.691C68.0694 353.535 65.5111 350.977 62.3553 350.977C59.1994 350.977 56.6411 353.535 56.6411 356.691C56.6411 359.847 59.1994 362.405 62.3553 362.405Z" fill="#FF6584"/>
<path d="M452.114 268.97C455.27 268.97 457.828 266.411 457.828 263.256C457.828 260.1 455.27 257.541 452.114 257.541C448.958 257.541 446.4 260.1 446.4 263.256C446.4 266.411 448.958 268.97 452.114 268.97Z" fill="#FF6584"/>
<path d="M365.62 410.874C370.775 410.874 374.954 406.695 374.954 401.54C374.954 396.385 370.775 392.205 365.62 392.205C360.464 392.205 356.285 396.385 356.285 401.54C356.285 406.695 360.464 410.874 365.62 410.874Z" fill="#E6E6E6"/>
</svg>
